<?xml version="1.0" standalone="no"?>
<!DOCTYPE svg PUBLIC "-//W3C//DTD SVG 20010904//EN"
 "http://www.w3.org/TR/2001/REC-SVG-20010904/DTD/svg10.dtd">
<svg version="1.0" xmlns="http://www.w3.org/2000/svg"
 width="997.000000pt" height="296.000000pt" viewBox="0 0 997.000000 296.000000"
 preserveAspectRatio="xMidYMid meet">

<g transform="translate(0.000000,296.000000) scale(0.100000,-0.100000)"
fill="#000000" stroke="none">
<path d="M26 2943 c-6 -15 -8 -15 -16 -3 -6 10 -10 11 -10 3 0 -15 35 -35 45
-25 4 4 2 -3 -4 -16 -11 -20 -9 -23 14 -32 15 -6 24 -14 21 -19 -3 -5 1 -14
10 -21 8 -7 13 -19 10 -27 -3 -8 1 -16 9 -19 8 -4 15 -10 15 -16 0 -5 7 -16
15 -25 8 -8 12 -19 9 -25 -5 -7 -2 -8 6 -3 10 6 12 4 6 -11 -6 -15 -5 -17 5
-6 7 6 18 12 23 12 6 0 4 -5 -4 -10 -13 -8 -13 -11 -1 -19 8 -5 11 -16 7 -26
-4 -12 0 -18 14 -22 18 -5 25 -15 21 -36 -1 -5 3 -6 9 -2 10 6 14 -7 11 -32
-2 -12 36 -29 54 -24 6 1 4 -3 -3 -10 -10 -11 -8 -16 10 -27 l23 -13 -22 4
c-13 3 -23 2 -23 -2 0 -12 57 -41 65 -33 5 4 5 1 1 -6 -5 -9 -13 -9 -26 -2
-19 10 -19 9 -2 -19 9 -16 20 -27 24 -25 5 3 6 10 3 15 -4 5 -1 9 5 9 7 0 9
-8 5 -21 -7 -23 41 -103 56 -93 5 3 10 -1 11 -8 0 -7 2 -17 2 -23 1 -5 6 -17
11 -25 5 -8 10 -17 11 -20 4 -19 17 -39 24 -35 4 3 11 -2 14 -11 3 -8 10 -12
16 -9 5 3 10 -3 10 -13 0 -11 8 -23 17 -26 12 -5 13 -10 5 -18 -9 -9 -6 -20
10 -47 25 -41 38 -52 52 -44 5 4 7 -1 3 -10 -4 -11 -2 -14 9 -10 17 6 19 -8 2
-25 -9 -9 -8 -12 5 -12 9 0 17 -5 17 -11 0 -5 -5 -7 -12 -3 -7 5 -8 3 -4 -5 5
-7 14 -10 21 -7 9 3 12 -2 10 -15 -3 -14 0 -19 9 -16 9 4 13 -1 12 -11 -4 -23
24 -63 37 -55 6 3 7 1 3 -5 -4 -6 2 -20 14 -32 11 -11 20 -29 20 -39 0 -11 10
-35 22 -53 l23 -34 89 4 89 5 -6 -149 c-4 -82 -10 -198 -14 -258 l-6 -108 -59
5 -58 5 0 -54 0 -54 55 0 55 0 -1 -82 c-3 -208 -13 -276 -63 -401 -25 -66 -46
-125 -46 -133 0 -12 61 -14 380 -14 l379 0 20 43 19 42 1 -42 c1 -37 -2 -43
-19 -43 -11 0 -20 -5 -20 -10 0 -21 33 -61 46 -56 8 3 13 2 13 -2 -3 -21 3
-32 17 -32 8 0 12 -5 9 -10 -4 -6 -11 -8 -16 -5 -5 4 -9 1 -9 -5 0 -7 7 -9 16
-6 12 5 15 2 10 -10 -5 -14 -4 -15 8 -5 11 9 16 9 22 0 4 -7 3 -9 -3 -6 -18
12 -26 -26 -8 -39 9 -7 18 -21 19 -31 2 -10 10 -17 19 -17 9 1 13 -4 10 -12
-2 -7 4 -21 16 -30 11 -10 18 -21 15 -26 -3 -4 2 -8 11 -8 9 0 13 5 10 10 -3
6 -1 10 5 10 7 0 10 -7 7 -15 -4 -8 -2 -17 3 -20 6 -4 10 -11 10 -18 0 -6 -7
-2 -15 9 -12 16 -14 16 -15 3 0 -20 24 -41 36 -31 4 4 3 0 -3 -8 -8 -11 -8
-18 3 -28 8 -7 14 -9 14 -5 0 4 7 -3 16 -15 8 -12 20 -19 26 -16 7 4 8 2 4 -5
-6 -9 -11 -9 -22 0 -12 10 -13 9 -8 -5 6 -15 311 -16 4065 -16 l4059 0 0 1480
0 1480 -4969 0 c-4692 0 -4969 -1 -4975 -17z m1332 -536 c-4 -32 -54 -36 -63
-6 -5 16 -2 26 10 35 25 18 57 0 53 -29z m-343 -100 c0 -108 0 -109 -29 -134
-24 -20 -36 -24 -65 -19 -65 10 -101 86 -41 86 20 0 30 -5 30 -15 0 -20 36
-19 44 1 3 9 6 56 6 105 l0 90 28 -3 27 -3 0 -108z m882 96 c69 -32 94 -122
53 -188 -19 -30 -41 -44 -98 -60 -31 -9 -103 28 -125 64 -37 63 -9 158 56 186
43 19 72 18 114 -2z m753 -13 c0 -16 -7 -20 -35 -20 l-35 0 0 -105 0 -105 -25
0 -25 0 0 105 0 105 -35 0 c-28 0 -35 4 -35 20 0 19 7 20 95 20 88 0 95 -1 95
-20z m-2266 -15 c3 -8 1 -15 -3 -15 -5 0 -11 7 -15 15 -3 8 -1 15 3 15 5 0 11
-7 15 -15z m843 -30 c61 -40 47 -152 -22 -181 -96 -40 -181 45 -141 140 26 61
102 80 163 41z m346 -7 c13 -15 17 -39 17 -99 0 -78 0 -79 -25 -79 -24 0 -25
3 -25 54 0 64 -6 83 -31 97 -14 7 -23 5 -39 -11 -16 -16 -20 -33 -20 -80 0
-57 -1 -60 -25 -60 l-25 0 0 101 0 102 33 -5 c17 -3 41 -2 52 3 28 11 67 2 88
-23z m1270 -9 c17 -19 27 -40 27 -59 l0 -30 -70 0 c-70 0 -81 -5 -58 -28 16
-16 43 -15 58 3 15 19 60 20 60 2 0 -28 -48 -60 -90 -61 -35 -1 -47 4 -71 32
-93 104 48 242 144 141z m177 26 c17 -9 30 -11 30 -5 0 5 11 10 25 10 l25 0 0
-100 0 -100 -25 0 c-14 0 -25 4 -25 9 0 5 -13 3 -29 -5 -91 -45 -173 84 -106
165 14 16 36 32 48 34 12 2 23 5 25 6 2 0 16 -6 32 -14z m290 -10 c12 -11 18
-11 34 1 11 8 37 14 57 14 58 0 79 -33 79 -126 0 -71 -1 -74 -24 -74 -22 0
-24 4 -28 71 -4 68 -14 88 -45 89 -29 0 -43 -32 -43 -96 0 -61 -1 -64 -24 -64
-22 0 -24 4 -28 69 -2 39 -7 73 -10 77 -12 12 -60 7 -69 -7 -5 -8 -9 -42 -9
-76 0 -60 -1 -63 -25 -63 l-25 0 0 100 0 100 25 0 c14 0 25 -4 25 -9 0 -6 12
-3 28 4 28 15 57 12 82 -10z m-1960 -85 l0 -100 -25 0 -25 0 0 100 0 100 25 0
25 0 0 -100z m710 30 c0 -59 3 -71 20 -80 14 -8 26 -8 40 0 17 9 20 21 20 80
l0 70 30 0 30 0 0 -100 0 -100 -47 -1 c-27 0 -61 0 -77 -1 -20 0 -37 8 -53 26
-20 23 -23 38 -23 102 l0 74 30 0 30 0 0 -70z m300 46 c0 -15 -10 -25 -30 -33
-29 -11 -30 -13 -30 -77 l0 -66 -30 0 -30 0 0 99 0 100 60 -1 c54 -1 60 -3 60
-22z m-1900 -50 c0 -3 -4 -8 -10 -11 -5 -3 -10 -1 -10 4 0 6 5 11 10 11 6 0
10 -2 10 -4z m10 -46 c0 -5 -5 -10 -11 -10 -5 0 -7 5 -4 10 3 6 8 10 11 10 2
0 4 -4 4 -10z m5355 -50 c3 -5 1 -10 -4 -10 -6 0 -11 5 -11 10 0 6 2 10 4 10
3 0 8 -4 11 -10z m652 -72 c-2 -18 -4 -6 -4 27 0 33 2 48 4 33 2 -15 2 -42 0
-60z m293 72 c0 -5 -5 -10 -11 -10 -5 0 -7 5 -4 10 3 6 8 10 11 10 2 0 4 -4 4
-10z m1630 0 c0 -5 -5 -10 -11 -10 -5 0 -7 5 -4 10 3 6 8 10 11 10 2 0 4 -4 4
-10z m130 0 c0 -5 -5 -10 -11 -10 -5 0 -7 5 -4 10 3 6 8 10 11 10 2 0 4 -4 4
-10z m-3170 -50 c0 -28 5 -40 18 -43 10 -3 6 -5 -10 -6 -27 -1 -28 1 -28 50 0
31 4 48 10 44 6 -3 10 -24 10 -45z m1000 -1 l0 -50 -37 3 c-31 2 -39 7 -41 26
-4 30 16 55 40 49 11 -3 18 0 18 9 0 8 5 14 10 14 6 0 10 -23 10 -51z m453 -1
c-4 -20 -1 -33 8 -40 11 -7 9 -8 -6 -6 -14 2 -22 13 -25 38 -8 46 -2 64 16 49
8 -7 11 -21 7 -41z m419 14 c-16 -5 -16 -49 1 -55 7 -4 6 -6 -4 -6 -19 -1 -29
19 -29 58 0 36 9 44 29 24 11 -12 13 -17 3 -21z m621 -14 c-4 -20 -1 -33 8
-40 11 -7 9 -8 -6 -6 -14 2 -22 13 -25 38 -8 46 -2 64 16 49 8 -7 11 -21 7
-41z m139 14 c-15 -5 -16 -34 0 -50 9 -9 8 -12 -4 -12 -11 0 -17 12 -20 38 -7
52 0 66 20 45 12 -12 13 -18 4 -21z m378 -13 l0 -50 -37 3 c-35 3 -38 6 -41
35 -2 24 1 33 17 38 12 3 25 3 31 0 5 -3 10 1 10 9 0 9 5 16 10 16 6 0 10 -23
10 -51z m-2900 11 c15 -28 -4 -60 -35 -60 -26 0 -45 26 -37 50 12 34 56 40 72
10z m60 9 c0 -5 -4 -9 -10 -9 -5 0 -10 -13 -10 -30 0 -16 -4 -30 -10 -30 -5 0
-10 17 -10 38 0 31 4 38 20 39 11 1 20 -2 20 -8z m75 -29 c0 -32 -2 -35 -30
-35 -24 0 -31 5 -33 23 -5 30 16 54 42 50 17 -2 21 -10 21 -38z m145 20 c13
-20 13 -60 0 -60 -5 0 -10 14 -10 30 0 23 -4 30 -20 30 -16 0 -20 -7 -20 -30
0 -16 -4 -30 -10 -30 -5 0 -10 13 -10 29 0 53 -33 46 -43 -9 -3 -17 -5 -12 -6
16 l-1 41 55 -1 c38 -1 59 -6 65 -16z m80 -26 c0 -19 -4 -34 -10 -34 -5 0 -10
18 -10 41 0 24 4 38 10 34 6 -3 10 -22 10 -41z m88 29 c6 -11 6 -28 1 -42 -7
-18 -15 -22 -34 -19 -21 4 -25 1 -25 -19 0 -14 -4 -21 -10 -18 -10 6 -14 97
-5 106 2 3 18 6 34 7 20 2 33 -4 39 -15z m70 -3 c4 -13 3 -13 -10 -2 -9 7 -19
9 -22 4 -3 -5 6 -14 20 -21 14 -6 24 -17 22 -24 -6 -15 -58 -22 -58 -7 0 7 8
9 20 5 11 -4 20 -2 20 4 0 6 -6 11 -14 11 -19 0 -29 17 -22 36 7 19 37 15 44
-6z m44 -20 c5 -38 32 -31 39 10 l6 35 2 -43 c1 -43 1 -43 -31 -40 -31 3 -33
6 -36 43 -4 44 14 39 20 -5z m186 27 c14 -11 16 -67 2 -67 -5 0 -10 13 -10 29
0 53 -33 46 -43 -9 l-4 -25 -2 26 c-1 27 -23 54 -34 42 -4 -3 -7 -19 -7 -35 0
-15 -4 -28 -10 -28 -5 0 -10 18 -10 40 l0 40 53 -2 c28 -1 58 -6 65 -11z m222
-1 c20 -25 8 -61 -21 -64 -36 -4 -55 21 -41 53 13 28 43 33 62 11z m132 -11
c14 -32 -5 -57 -41 -53 -18 2 -27 10 -29 26 -7 50 49 72 70 27z m58 14 c0 -5
-4 -9 -10 -9 -5 0 -10 -13 -10 -30 0 -16 -4 -30 -10 -30 -5 0 -10 17 -10 38 0
31 4 38 20 39 11 1 20 -2 20 -8z m105 0 c11 -16 -3 -23 -19 -10 -8 7 -17 8
-20 3 -3 -5 6 -14 20 -21 14 -6 24 -17 21 -24 -5 -17 -37 -21 -51 -7 -8 9 -6
11 12 5 12 -3 22 -2 22 4 0 5 -9 13 -20 16 -20 6 -26 25 -13 38 10 11 41 8 48
-4z m35 -29 c0 -22 -4 -40 -10 -40 -11 0 -14 63 -3 73 11 12 13 8 13 -33z
m180 0 c0 -31 -3 -36 -26 -38 -31 -2 -54 13 -54 37 0 26 21 41 52 39 25 -2 28
-6 28 -38z m138 27 c14 -11 16 -67 2 -67 -5 0 -10 13 -10 29 0 53 -33 46 -43
-9 l-4 -25 -2 26 c-1 27 -23 54 -34 42 -4 -3 -7 -19 -7 -35 0 -15 -4 -28 -10
-28 -5 0 -10 18 -10 40 l0 40 53 -2 c28 -1 58 -6 65 -11z m90 1 c22 -22 13
-38 -19 -38 -18 0 -28 -4 -24 -10 4 -6 16 -8 27 -4 14 4 18 2 14 -5 -9 -15
-39 -14 -54 1 -24 24 -7 68 28 68 9 0 21 -5 28 -12z m202 -3 c8 -9 9 -15 2
-15 -6 0 -13 4 -17 10 -9 15 -35 0 -35 -21 0 -24 29 -37 40 -18 5 7 12 10 15
7 12 -12 -6 -28 -30 -28 -14 0 -29 9 -35 20 -23 42 30 81 60 45z m94 -7 c15
-25 -3 -52 -37 -56 -21 -3 -28 2 -33 22 -12 49 43 76 70 34z m86 3 c13 -25 13
-61 0 -61 -5 0 -10 14 -10 30 0 23 -4 30 -20 30 -16 0 -20 -7 -20 -30 0 -16
-4 -30 -10 -30 -10 0 -15 62 -6 71 14 14 56 7 66 -10z m78 1 c3 -11 0 -12 -17
-3 -28 15 -27 -2 1 -21 12 -8 18 -19 14 -26 -9 -15 -43 -16 -52 -1 -4 8 0 9
15 4 12 -3 21 -2 21 4 0 5 -9 13 -20 16 -20 6 -26 25 -13 39 11 11 46 2 51
-12z m80 6 c22 -22 13 -38 -19 -38 -18 0 -28 -4 -24 -10 4 -6 16 -8 27 -4 14
4 18 2 14 -5 -9 -15 -39 -14 -54 1 -24 24 -7 68 28 68 9 0 21 -5 28 -12z m90
-6 c3 -11 0 -12 -16 -3 -24 13 -46 -7 -36 -33 7 -19 25 -21 43 -3 11 10 13 9
9 -3 -3 -9 -17 -15 -34 -15 -23 0 -30 5 -32 23 -2 13 2 30 9 38 14 18 51 15
57 -4z m130 6 c22 -22 13 -38 -19 -38 -19 0 -28 -4 -23 -11 3 -6 17 -8 31 -4
16 4 22 2 18 -5 -11 -18 -54 -11 -65 10 -22 40 26 80 58 48z m112 -53 c10 0
16 12 18 33 5 46 22 40 22 -9 0 -39 -1 -40 -32 -37 -31 3 -33 6 -35 43 l-1 40
6 -35 c4 -22 13 -35 22 -35z m87 47 c-8 -9 -17 -28 -20 -42 -3 -17 -5 -12 -6
15 -1 35 2 41 20 42 19 2 20 0 6 -15z m133 -24 c0 -35 -2 -38 -28 -38 -31 0
-52 16 -52 40 0 25 21 40 52 38 25 -2 28 -6 28 -40z m130 2 c0 -22 -4 -40 -10
-40 -11 0 -14 63 -3 73 11 12 13 8 13 -33z m94 18 c14 -23 -3 -52 -33 -56 -11
-2 -21 -10 -21 -17 0 -8 -4 -17 -10 -20 -6 -4 -10 16 -10 53 l0 59 31 -1 c19
-1 36 -8 43 -18z m36 -18 c0 -22 -4 -40 -10 -40 -11 0 -14 63 -3 73 11 12 13
8 13 -33z m68 20 c4 -13 3 -13 -10 -2 -9 7 -19 9 -22 4 -3 -5 6 -14 20 -21 14
-6 24 -17 22 -24 -6 -15 -58 -22 -58 -7 0 7 8 9 20 5 11 -4 20 -2 20 4 0 6 -6
11 -14 11 -19 0 -29 17 -22 36 7 19 37 15 44 -6z m87 9 c10 -15 -4 -24 -17
-11 -14 14 -38 -2 -38 -25 0 -20 28 -27 47 -12 14 12 16 12 11 -1 -3 -9 -17
-15 -34 -15 -23 0 -30 5 -32 23 -2 13 2 30 8 38 15 16 46 19 55 3z m32 -51
c-2 -13 -4 -3 -4 22 0 25 2 35 4 23 2 -13 2 -33 0 -45z m89 17 c1 -29 0 -32
-3 -10 -8 53 -43 56 -43 4 0 -16 -4 -29 -10 -29 -5 0 -10 17 -10 39 0 36 1 38
33 37 30 -1 32 -3 33 -41z m102 2 c6 -64 -35 -101 -68 -62 -11 13 -8 14 19 9
19 -4 31 -2 31 4 0 6 -12 12 -27 14 -22 2 -29 9 -31 32 -4 33 12 47 48 43 21
-3 26 -10 28 -40z m-1645 -37 c-3 -11 -9 -20 -13 -20 -5 0 -6 9 -3 20 3 11 9
20 13 20 5 0 6 -9 3 -20z m-6679 -31 c-6 -11 -24 -2 -24 11 0 5 7 7 15 4 8 -4
12 -10 9 -15z m4853 -141 c-2 -18 -4 -6 -4 27 0 33 2 48 4 33 2 -15 2 -42 0
-60z m38 72 c3 -5 1 -10 -4 -10 -6 0 -11 5 -11 10 0 6 2 10 4 10 3 0 8 -4 11
-10z m505 -5 c-10 -12 -10 -15 1 -15 10 0 10 -3 1 -12 -7 -7 -13 -26 -13 -42
-1 -28 -2 -27 -9 9 -8 41 2 75 22 75 7 0 6 -5 -2 -15z m90 5 c0 -5 -5 -10 -11
-10 -5 0 -7 5 -4 10 3 6 8 10 11 10 2 0 4 -4 4 -10z m220 0 c0 -5 -4 -10 -10
-10 -5 0 -10 5 -10 10 0 6 5 10 10 10 6 0 10 -4 10 -10z m27 -72 c-2 -18 -4
-6 -4 27 0 33 2 48 4 33 2 -15 2 -42 0 -60z m208 72 c3 -5 1 -10 -4 -10 -6 0
-11 5 -11 10 0 6 2 10 4 10 3 0 8 -4 11 -10z m1955 0 c0 -5 -4 -10 -10 -10 -5
0 -10 5 -10 10 0 6 5 10 10 10 6 0 10 -4 10 -10z m-2958 -38 c-15 -5 -16 -34
0 -50 9 -9 8 -12 -4 -12 -11 0 -17 12 -20 38 -7 52 0 66 20 45 12 -12 13 -18
4 -21z m131 31 c-25 -5 -32 -33 -8 -33 8 0 15 -4 15 -10 0 -5 -7 -10 -15 -10
-24 0 -17 -28 8 -33 16 -3 13 -5 -10 -6 l-33 -1 0 50 0 50 33 -1 c23 -1 26 -3
10 -6z m59 -31 c-15 -5 -16 -34 0 -50 9 -9 8 -12 -4 -12 -11 0 -17 12 -20 38
-7 52 0 66 20 45 12 -12 13 -18 4 -21z m181 -14 c-4 -20 -1 -33 8 -40 11 -7 9
-8 -6 -6 -14 2 -22 13 -25 38 -8 46 -2 64 16 49 8 -7 11 -21 7 -41z m467 2 c0
-27 -4 -50 -10 -50 -5 0 -10 23 -10 50 0 28 5 50 10 50 6 0 10 -22 10 -50z
m260 -1 l0 -50 -37 3 c-31 2 -39 7 -41 26 -4 30 16 55 40 49 11 -3 18 0 18 9
0 8 5 14 10 14 6 0 10 -23 10 -51z m1270 1 c0 -27 -4 -50 -10 -50 -5 0 -10 23
-10 50 0 28 5 50 10 50 6 0 10 -22 10 -50z m-2492 18 c22 -22 13 -38 -19 -38
-19 0 -28 -4 -23 -11 3 -6 17 -8 31 -4 16 4 22 2 18 -5 -10 -16 -53 -12 -63 8
-22 40 24 82 56 50z m82 -34 c0 -19 -4 -34 -10 -34 -5 0 -10 18 -10 41 0 24 4
38 10 34 6 -3 10 -22 10 -41z m370 3 c0 -38 0 -38 -37 -35 -31 2 -39 7 -41 26
-5 32 14 51 49 49 27 -2 29 -5 29 -40z m190 33 c0 -5 -4 -10 -10 -10 -5 0 -10
-13 -10 -30 0 -16 -4 -30 -10 -30 -5 0 -10 18 -10 40 0 33 3 40 20 40 11 0 20
-4 20 -10z m30 -30 c0 -22 -4 -40 -10 -40 -11 0 -14 63 -3 73 11 12 13 8 13
-33z m88 -2 c2 -22 -1 -38 -7 -38 -6 0 -11 13 -11 29 0 53 -33 46 -43 -9 -3
-17 -5 -12 -6 16 -1 40 0 41 32 40 30 -1 32 -4 35 -38z m92 -15 c0 -47 -2 -53
-24 -59 -25 -6 -46 1 -46 14 0 5 12 8 27 7 14 0 28 5 30 11 2 7 -5 10 -21 7
-17 -4 -27 1 -35 16 -18 32 2 62 39 59 29 -2 30 -4 30 -55z m40 17 c0 -22 -4
-40 -10 -40 -5 0 -10 18 -10 40 0 22 5 40 10 40 6 0 10 -18 10 -40z m160 -2
c0 -35 -2 -38 -28 -38 -31 0 -52 16 -52 40 0 25 21 40 52 38 25 -2 28 -6 28
-40z m67 -20 c-2 -13 -4 -3 -4 22 0 25 2 35 4 23 2 -13 2 -33 0 -45z m281 20
c2 -21 -1 -38 -7 -38 -5 0 -11 15 -13 33 -2 17 -7 32 -13 32 -5 0 -11 -15 -13
-32 -4 -40 -22 -44 -22 -5 0 34 -7 43 -26 35 -8 -3 -14 -18 -14 -34 0 -16 -4
-29 -10 -29 -10 0 -14 62 -5 72 3 2 31 4 62 4 l58 -1 3 -37z m100 1 c3 -35 2
-36 -32 -37 -43 -2 -64 25 -46 58 9 16 19 20 43 17 29 -3 32 -7 35 -38z m80
24 c6 -11 6 -28 1 -41 -12 -32 -62 -28 -67 6 -7 45 47 72 66 35z m82 7 c8 -5
11 -12 7 -16 -4 -4 -13 -2 -19 4 -14 14 -38 -2 -38 -25 0 -20 28 -27 47 -12
14 12 16 12 11 -1 -3 -9 -17 -15 -34 -15 -25 0 -30 4 -32 29 -5 39 24 58 58
36z m90 -5 c17 -21 -2 -65 -28 -65 -22 0 -42 19 -42 40 0 37 47 53 70 25z m86
-30 c1 -29 0 -32 -3 -10 -8 53 -43 56 -43 4 0 -16 -4 -29 -10 -29 -5 0 -10 18
-10 41 0 39 1 40 33 37 30 -3 32 -6 33 -43z m104 3 c0 -39 0 -39 -37 -36 -31
2 -39 7 -41 26 -5 32 14 51 49 50 27 -1 29 -4 29 -40z m68 22 c4 -13 3 -13
-10 -2 -10 8 -19 9 -22 3 -4 -5 3 -12 14 -16 30 -9 26 -45 -4 -45 -14 0 -28 5
-31 10 -4 7 2 9 19 4 16 -4 26 -2 26 5 0 6 -6 11 -14 11 -22 0 -38 24 -23 39
15 15 39 10 45 -9z m69 -42 c-2 -13 -4 -3 -4 22 0 25 2 35 4 23 2 -13 2 -33 0
-45z m90 17 c0 -23 -1 -29 -4 -15 -11 55 -43 62 -43 9 0 -16 -4 -29 -10 -29
-5 0 -10 17 -10 39 0 36 1 38 33 37 30 -1 32 -3 34 -41z m111 25 c4 -13 3 -13
-10 -2 -9 7 -19 9 -22 4 -3 -5 6 -14 19 -20 16 -7 23 -17 19 -27 -6 -16 -54
-21 -54 -6 0 5 9 7 20 4 11 -3 20 0 20 6 0 6 -6 11 -14 11 -22 0 -38 24 -23
39 15 15 39 10 45 -9z m87 9 c10 -15 -4 -24 -17 -11 -14 14 -38 -2 -38 -25 0
-20 28 -27 47 -12 14 12 16 12 11 -1 -3 -9 -17 -15 -34 -15 -25 0 -30 4 -32
29 -4 30 10 46 40 46 9 0 20 -5 23 -11z m83 -1 c22 -22 13 -38 -19 -38 -18 0
-28 -4 -24 -10 4 -6 16 -8 27 -4 14 4 18 2 14 -5 -9 -15 -39 -14 -54 1 -24 24
-7 68 28 68 9 0 21 -5 28 -12z m120 0 c22 -22 13 -38 -19 -38 -19 0 -28 -4
-23 -11 3 -6 17 -8 31 -4 16 4 22 2 18 -5 -9 -15 -51 -12 -65 5 -29 35 26 85
58 53z m62 0 c0 -4 -4 -8 -10 -8 -5 0 -10 -13 -10 -30 0 -16 -4 -30 -10 -30
-10 0 -14 62 -5 72 8 8 35 5 35 -4z m27 -50 c-2 -13 -4 -3 -4 22 0 25 2 35 4
23 2 -13 2 -33 0 -45z m78 51 c11 -16 -3 -23 -19 -10 -8 7 -17 8 -20 3 -3 -5
6 -14 20 -21 14 -6 24 -17 21 -24 -5 -17 -37 -21 -51 -7 -8 9 -6 11 12 5 12
-3 22 -2 22 4 0 5 -9 13 -20 16 -20 6 -26 25 -13 38 10 11 41 8 48 -4z m95
-52 c0 -36 -4 -56 -10 -52 -5 3 -10 13 -10 21 0 8 -10 14 -25 14 -18 0 -26 7
-31 25 -8 33 12 56 47 53 28 -2 29 -4 29 -61z m53 -5 c13 -3 17 3 17 27 0 16
5 33 10 36 6 4 10 -10 10 -35 0 -41 -1 -41 -32 -38 -31 3 -33 6 -35 43 l-1 40
6 -35 c5 -22 14 -36 25 -38z m115 56 c22 -22 13 -38 -19 -38 -19 0 -28 -4 -23
-11 3 -6 17 -8 31 -4 16 4 22 2 18 -5 -11 -18 -54 -11 -65 10 -22 40 26 80 58
48z m82 -28 c0 -22 -4 -40 -10 -40 -5 0 -10 18 -10 40 0 22 5 40 10 40 6 0 10
-18 10 -40z m77 28 c15 -12 18 -68 3 -68 -5 0 -10 13 -10 29 0 53 -33 46 -43
-9 -3 -17 -5 -12 -6 15 -1 35 2 41 21 42 12 1 28 -3 35 -9z m-7867 -64 c0 -8
-5 -12 -10 -9 -6 4 -8 11 -5 16 9 14 15 11 15 -7z m4870 6 c0 -5 -5 -10 -11
-10 -5 0 -7 5 -4 10 3 6 8 10 11 10 2 0 4 -4 4 -10z m3040 0 c0 -5 -5 -10 -11
-10 -5 0 -7 5 -4 10 3 6 8 10 11 10 2 0 4 -4 4 -10z m-1525 -110 c3 -5 1 -10
-4 -10 -6 0 -11 5 -11 10 0 6 2 10 4 10 3 0 8 -4 11 -10z m212 -72 c-2 -18 -4
-6 -4 27 0 33 2 48 4 33 2 -15 2 -42 0 -60z m430 0 c-2 -18 -4 -6 -4 27 0 33
2 48 4 33 2 -15 2 -42 0 -60z m-2317 57 c10 -12 10 -18 0 -30 -7 -8 -19 -15
-26 -15 -8 0 -14 -9 -14 -20 0 -11 -4 -20 -10 -20 -5 0 -10 23 -10 50 0 46 2
50 24 50 13 0 29 -7 36 -15z m40 6 c0 -5 10 -11 23 -13 18 -2 22 -10 24 -43 0
-23 -1 -29 -4 -15 -11 55 -43 62 -43 9 0 -16 -4 -29 -10 -29 -5 0 -10 23 -10
50 0 28 5 50 10 50 6 0 10 -4 10 -9z m332 -29 c-16 -5 -16 -49 1 -55 7 -4 6
-6 -4 -6 -12 -1 -18 10 -21 37 -7 52 0 66 20 45 12 -12 13 -18 4 -21z m497 4
c-13 -14 -11 -53 4 -60 6 -3 3 -5 -8 -3 -15 2 -21 11 -23 36 -5 47 4 66 22 49
9 -8 11 -17 5 -22z m413 -4 c-16 -5 -16 -49 1 -55 7 -4 6 -6 -4 -6 -12 -1 -18
10 -21 37 -7 52 0 66 20 45 12 -12 13 -18 4 -21z m354 24 c9 -9 10 -17 4 -21
-14 -9 -12 -52 3 -59 6 -3 3 -5 -8 -3 -14 2 -22 12 -25 37 -6 34 -3 60 7 60 2
0 11 -6 19 -14z m74 1 c0 -7 12 -13 28 -12 24 0 27 -3 27 -35 0 -33 -2 -35
-37 -38 l-38 -3 0 50 c0 28 5 51 10 51 6 0 10 -6 10 -13z m580 -37 c0 -27 -4
-50 -10 -50 -5 0 -10 23 -10 50 0 28 5 50 10 50 6 0 10 -22 10 -50z m855 18
l20 -33 3 33 c5 51 22 37 22 -18 0 -27 -4 -50 -9 -50 -5 0 -20 17 -33 38 l-23
37 -6 -40 c-6 -39 -6 -39 -8 13 0 28 3 52 7 52 4 0 17 -15 27 -32z m-7772 -5
c-3 -7 -9 -10 -14 -7 -14 8 -11 21 5 21 8 0 12 -6 9 -14z m4815 -26 c3 -36 2
-37 -32 -37 -37 0 -58 22 -48 50 7 22 24 30 52 27 21 -3 26 -10 28 -40z m52
31 c0 -4 -4 -8 -10 -8 -5 0 -10 -13 -10 -30 0 -16 -4 -30 -10 -30 -10 0 -14
62 -5 72 8 8 35 5 35 -4z m78 0 c22 -22 13 -38 -19 -38 -18 0 -28 -4 -24 -10
3 -6 18 -7 32 -4 18 5 24 3 19 -5 -9 -15 -49 -14 -64 1 -24 24 -7 68 28 68 9
0 21 -5 28 -12z m112 0 c0 -4 -4 -8 -10 -8 -5 0 -10 -13 -10 -30 0 -16 -4 -30
-10 -30 -10 0 -14 62 -5 72 8 8 35 5 35 -4z m90 -28 c0 -31 -3 -36 -26 -38
-31 -2 -54 13 -54 37 0 26 21 41 52 39 25 -2 28 -6 28 -38z m148 28 c22 -22
13 -38 -19 -38 -18 0 -28 -4 -24 -10 4 -6 15 -8 26 -5 11 4 19 2 19 -4 0 -15
-43 -14 -58 1 -24 24 -7 68 28 68 9 0 21 -5 28 -12z m62 0 c0 -4 -4 -8 -10 -8
-5 0 -10 -13 -10 -30 0 -16 -4 -30 -10 -30 -10 0 -14 62 -5 72 8 8 35 5 35 -4z
m90 -30 c0 -35 -2 -38 -28 -38 -31 0 -52 16 -52 40 0 25 21 40 52 38 25 -2 28
-6 28 -40z m180 2 c0 -32 -3 -36 -30 -38 -36 -3 -57 27 -40 58 8 14 20 20 40
18 27 -2 30 -6 30 -38z m138 27 c14 -10 16 -67 2 -67 -5 0 -10 13 -10 29 0 53
-33 46 -43 -9 -4 -21 -4 -20 -6 8 -1 25 -5 32 -21 32 -16 0 -20 -7 -20 -30 0
-16 -4 -30 -10 -30 -10 0 -14 62 -5 72 8 8 99 4 113 -5z m90 1 c22 -22 13 -38
-19 -38 -19 0 -28 -4 -23 -11 3 -6 17 -8 31 -4 16 4 22 2 18 -5 -9 -15 -51
-12 -65 5 -29 35 26 85 58 53z m158 -13 c3 -14 10 -25 14 -25 4 0 11 11 14 25
4 14 11 25 16 25 10 0 -7 -58 -21 -74 -11 -12 -15 -8 -34 37 -9 21 -11 37 -5
37 5 0 12 -11 16 -25z m122 13 c22 -22 13 -38 -19 -38 -19 0 -28 -4 -23 -11 3
-6 17 -8 31 -4 16 4 22 2 18 -5 -11 -18 -54 -11 -65 10 -22 40 26 80 58 48z
m80 -8 c4 -13 3 -13 -10 -2 -12 9 -18 10 -23 2 -4 -7 2 -14 14 -17 31 -8 28
-43 -3 -43 -14 0 -28 5 -31 10 -4 7 2 9 19 4 16 -4 26 -2 26 5 0 6 -6 11 -14
11 -19 0 -39 27 -31 40 10 15 47 8 53 -10z m92 -26 c0 -19 -4 -34 -10 -34 -5
0 -10 18 -10 41 0 24 4 38 10 34 6 -3 10 -22 10 -41z m143 -22 c13 -3 17 3 17
27 0 16 5 33 10 36 6 4 10 -10 10 -35 0 -41 -1 -41 -32 -38 -31 3 -33 6 -35
43 l-1 40 6 -35 c5 -22 14 -36 25 -38z m109 36 c4 -46 31 -44 39 2 l6 35 2
-42 c1 -41 0 -43 -28 -43 -30 0 -41 14 -41 56 0 36 18 29 22 -8z m186 19 c14
-11 16 -67 2 -67 -5 0 -10 13 -10 29 0 53 -33 46 -43 -9 -4 -22 -4 -21 -6 6 0
18 -7 34 -15 37 -19 8 -26 -1 -26 -35 0 -15 -4 -28 -10 -28 -5 0 -10 18 -10
40 l0 40 53 -2 c28 -1 58 -6 65 -11z m102 -52 c10 0 16 12 18 33 4 42 22 31
22 -14 0 -32 -2 -34 -35 -34 -29 0 -36 4 -41 25 -3 14 -3 33 2 42 6 14 9 10
13 -17 4 -22 12 -35 21 -35z m200 23 c0 -39 0 -39 -37 -36 -31 2 -39 7 -41 26
-5 32 14 51 49 50 27 -1 29 -4 29 -40z m136 -3 c1 -29 0 -32 -3 -10 -8 53 -43
56 -43 4 0 -16 -4 -29 -10 -29 -5 0 -10 13 -10 29 0 53 -33 46 -43 -9 -3 -17
-5 -12 -6 16 l-1 40 58 0 57 -1 1 -40z m89 34 c10 -15 -4 -24 -17 -11 -14 14
-38 -2 -38 -25 0 -20 28 -27 47 -12 14 12 16 12 11 -1 -3 -9 -17 -15 -34 -15
-25 0 -30 4 -32 29 -4 30 10 46 40 46 9 0 20 -5 23 -11z m85 -3 c6 -8 10 -25
8 -38 -6 -42 -78 -32 -78 11 0 37 46 55 70 27z m58 0 c-9 -6 -18 -25 -21 -41
-3 -25 -4 -23 -6 10 -1 36 2 41 22 42 20 2 20 1 5 -11z m96 -8 c15 -24 -3 -52
-37 -56 -17 -2 -27 -10 -30 -25 -2 -12 -5 5 -6 39 l-1 61 31 -1 c19 -1 36 -8
43 -18z m84 5 c6 -11 6 -28 1 -41 -12 -32 -62 -28 -67 6 -7 45 47 72 66 35z
m62 6 c0 -5 -4 -9 -10 -9 -5 0 -10 -13 -10 -30 0 -16 -4 -30 -10 -30 -5 0 -10
17 -10 38 0 31 4 38 20 39 11 1 20 -2 20 -8z m210 -54 c10 0 16 12 18 33 5 46
22 40 22 -9 0 -39 -1 -40 -32 -37 -31 3 -33 6 -35 43 l-1 40 6 -35 c4 -22 13
-35 22 -35z m117 53 c15 -12 18 -68 3 -68 -5 0 -10 13 -10 29 0 52 -35 49 -43
-4 -3 -25 -4 -24 -6 10 -1 35 2 41 21 42 12 1 28 -3 35 -9z m91 -8 c5 -13 3
-13 -11 -2 -19 16 -37 8 -37 -18 0 -26 18 -34 37 -18 14 11 15 11 11 -2 -11
-34 -68 -17 -68 19 0 38 57 55 68 21z m-7105 3 c-13 -2 -35 -2 -50 0 -16 2 -5
4 22 4 28 0 40 -2 28 -4z m655 -37 c-6 -10 -35 -54 -64 -97 -53 -76 -72 -117
-34 -70 17 19 20 20 20 6 0 -28 -39 -153 -50 -160 -10 -6 -30 -73 -36 -118 -2
-16 -20 -62 -39 -102 -19 -41 -35 -77 -35 -81 0 -3 -16 -32 -36 -64 -28 -45
-51 -68 -103 -100 -36 -23 -55 -38 -41 -35 14 4 29 11 34 16 15 14 30 11 19
-3 -6 -7 -9 -21 -8 -30 2 -10 -2 -15 -10 -12 -7 3 -16 1 -20 -5 -13 -21 41
-11 80 16 34 22 37 23 21 5 -11 -12 -17 -24 -15 -27 3 -2 178 -7 389 -11 460
-7 419 7 421 -153 1 -86 3 -98 10 -61 4 25 8 70 8 100 1 30 12 89 26 132 54
169 57 271 9 328 -20 23 -25 38 -22 72 3 40 5 43 31 43 27 0 30 -5 56 -85 15
-47 33 -95 39 -107 7 -12 23 -63 36 -112 19 -69 39 -115 85 -188 57 -91 61
-101 61 -158 0 -99 -12 -202 -21 -180 -7 17 -8 18 -8 3 -1 -26 -105 -26 -120
-1 -9 17 -10 17 -16 0 -12 -30 -39 -20 -52 21 -10 32 -10 39 4 49 15 11 13 14
-15 19 -17 4 -34 14 -37 24 -10 32 -32 31 -48 -3 -15 -30 -15 -31 16 -53 17
-12 40 -19 52 -16 16 4 18 2 8 -9 -7 -7 -13 -21 -13 -30 0 -17 -41 -18 -654
-19 l-653 -1 -7 83 c-4 46 -12 118 -18 160 -10 65 -14 76 -25 66 -11 -8 -13
-24 -8 -58 l6 -46 -73 4 c-40 2 -73 5 -74 6 -1 0 2 28 6 60 5 44 12 64 29 77
28 23 78 25 102 3 16 -14 18 -14 24 5 3 12 18 24 31 27 19 5 24 12 21 25 -5
20 3 22 43 9 17 -5 19 -8 8 -9 -35 -2 -17 -21 20 -21 33 1 42 7 84 60 26 33
52 76 59 95 12 32 17 35 51 35 31 0 38 4 38 20 0 14 -7 20 -22 21 -22 1 -22 1
2 8 14 4 26 15 28 25 4 18 -27 48 -40 40 -5 -3 -8 10 -8 30 0 19 5 36 12 38
18 6 12 94 -9 125 -43 64 -51 109 -16 96 11 -4 14 -3 9 5 -4 7 -14 12 -22 12
-8 0 -19 12 -24 26 -6 16 -16 24 -24 21 -7 -3 -26 3 -42 14 -38 25 -132 52
-161 46 -21 -4 -23 -1 -23 39 0 23 4 46 10 49 10 6 428 -12 488 -21 l32 -5 0
-137 c1 -131 1 -136 17 -108 9 18 19 72 24 135 4 59 8 107 8 109 1 1 6 2 11 2
6 0 10 -13 10 -30 0 -27 7 -35 27 -27 4 1 8 10 8 20 1 9 11 28 23 40 12 13 19
26 15 30 -3 4 2 16 12 27 10 11 15 20 11 20 -4 0 5 11 21 24 31 27 49 16 31
-18z m470 37 c-10 -2 -26 -2 -35 0 -10 3 -2 5 17 5 19 0 27 -2 18 -5z m225
-10 c-5 -13 -3 -15 13 -8 27 11 124 23 124 14 0 -11 -28 -19 -65 -19 -19 0
-46 -5 -62 -11 -15 -7 -63 -13 -105 -15 l-78 -4 0 30 0 30 90 0 c79 0 89 -2
83 -17z m1727 -33 c0 -31 -8 -65 -21 -90 -12 -23 -19 -44 -15 -47 3 -4 6 -1 6
5 0 7 7 12 15 12 8 0 15 -7 15 -15 0 -8 -5 -15 -11 -15 -5 0 -8 -4 -5 -9 11
-17 15 -131 5 -131 -12 0 -18 15 -29 76 -9 46 -9 45 -5 -16 4 -43 12 -74 25
-92 19 -25 20 -44 19 -415 0 -303 -3 -384 -12 -369 -36 57 -107 143 -128 153
-13 7 -55 20 -92 29 -80 20 -151 62 -174 103 -14 23 -23 28 -52 27 -35 -1 -36
1 -57 58 -12 34 -20 77 -18 100 17 253 15 276 -27 383 -34 86 -140 143 -258
139 -135 -5 -259 -104 -237 -190 8 -31 40 -39 61 -16 17 18 86 40 128 40 24 0
53 -42 41 -61 -7 -12 13 -32 54 -53 37 -19 54 -47 61 -101 4 -26 11 -40 21
-40 10 0 16 13 18 40 6 72 85 125 112 76 15 -29 12 -78 -6 -114 -20 -39 -33
-48 -56 -41 -14 4 -18 0 -18 -20 0 -14 -4 -26 -10 -26 -5 0 -9 -3 -9 -7 4 -23
-3 -34 -18 -31 -15 2 -18 -3 -15 -29 1 -24 -2 -33 -13 -33 -8 0 -12 -6 -9 -13
2 -7 -12 -24 -34 -38 -39 -26 -39 -26 -52 -5 -9 15 -10 21 -1 24 6 2 16 12 21
22 7 13 6 20 -6 24 -10 4 -13 2 -8 -6 4 -6 -1 -17 -11 -24 -9 -7 -15 -19 -13
-26 8 -23 -54 -68 -93 -68 -13 0 -19 7 -19 24 0 14 -16 45 -35 70 -22 30 -30
46 -21 46 8 0 16 -5 18 -11 3 -8 18 -4 43 10 22 12 31 20 20 18 -15 -3 -21 1
-22 14 -1 10 2 21 8 24 5 4 9 13 9 22 0 15 -2 15 -17 1 -28 -24 -83 -49 -93
-43 -15 9 -12 79 5 101 23 30 18 50 -16 64 -30 13 -31 15 -27 71 l3 58 -56 36
c-78 50 -134 99 -170 151 -27 40 -77 146 -94 202 l-6 22 690 0 691 0 0 -50z
m-2907 33 c-23 -2 -64 -2 -90 0 -26 2 -7 3 42 3 50 0 71 -1 48 -3z m180 -10
c-23 -2 -64 -2 -90 0 -26 2 -7 3 42 3 50 0 71 -1 48 -3z m-1279 -18 c-7 -17
-20 -20 -29 -6 -3 5 3 12 12 14 10 3 19 5 20 6 1 0 0 -6 -3 -14z m1436 -34 c0
-17 -4 -33 -10 -36 -6 -4 -10 8 -10 29 0 20 5 36 10 36 6 0 10 -13 10 -29z
m870 18 c0 -12 51 -8 83 6 14 6 17 2 17 -24 0 -24 -5 -32 -22 -36 -65 -14 -82
-9 -95 24 -6 17 -8 32 -5 35 9 10 22 7 22 -5z m2830 -10 c-7 -11 -14 -19 -16
-16 -7 7 7 37 17 37 6 0 5 -9 -1 -21z m770 14 c0 -5 -5 -15 -10 -23 -8 -12
-10 -11 -10 8 0 12 5 22 10 22 6 0 10 -3 10 -7z m1735 -3 c3 -5 1 -10 -4 -10
-6 0 -11 5 -11 10 0 6 2 10 4 10 3 0 8 -4 11 -10z m-7080 -23 l210 -12 3 -57
c3 -57 3 -57 -49 -108 -39 -36 -50 -53 -42 -61 8 -8 7 -20 -3 -45 -17 -41 -19
-82 -2 -47 6 12 16 24 23 27 7 2 -3 -31 -22 -75 -45 -104 -101 -363 -82 -375
5 -3 9 1 9 9 0 8 7 30 15 48 l15 34 -5 -55 c-12 -117 -13 -140 -5 -140 4 0 16
33 26 73 10 39 20 64 22 55 2 -9 -1 -33 -7 -53 -5 -20 -7 -43 -4 -51 3 -8 0
-14 -7 -14 -6 0 -8 -5 -5 -10 6 -9 -2 -41 -28 -112 -5 -16 -16 -28 -24 -28
-10 0 -12 6 -7 23 9 25 9 45 -1 105 l-8 43 -25 -50 c-24 -45 -28 -49 -42 -36
-27 24 -33 17 -26 -30 8 -53 22 -50 -157 -34 -178 15 -166 10 -161 72 2 28 7
110 10 181 l6 129 173 -7 c158 -7 173 -6 179 10 4 10 2 21 -4 24 -8 5 -6 9 5
14 14 5 16 14 12 40 -3 19 1 61 8 93 20 84 19 113 -4 113 -12 0 -21 -9 -25
-25 -4 -14 -11 -25 -17 -25 -6 0 -8 -8 -5 -17 3 -10 0 -40 -7 -68 l-13 -50
-145 0 -144 0 1 125 c0 69 4 182 8 253 l8 127 67 -1 c36 0 161 -6 276 -12z
m1224 2 c17 -6 31 -17 31 -25 0 -8 4 -14 9 -14 5 0 16 -20 24 -44 l15 -44 -41
-11 c-59 -15 -70 -24 -74 -63 -4 -37 14 -88 31 -88 18 -1 -37 -29 -59 -31 -13
0 -8 -4 14 -10 22 -7 43 -7 62 0 17 6 27 6 24 2 -7 -13 -94 -41 -123 -41 -15
0 -22 5 -19 13 2 6 7 23 11 37 l7 25 -20 -22 c-10 -13 -28 -23 -40 -23 -25 0
-51 46 -51 89 0 29 2 30 26 21 37 -15 74 -12 80 5 4 8 10 13 14 10 5 -3 6 4 3
16 -7 25 -47 42 -85 36 -32 -4 -32 -3 -16 59 14 49 35 69 103 97 22 9 40 16
41 16 1 1 15 -4 33 -10z m399 -3 c3 -3 11 -1 18 5 17 14 28 -5 20 -37 -5 -17
-13 -24 -31 -24 -14 0 -25 -4 -25 -10 0 -5 7 -10 16 -10 9 0 14 -8 13 -17 -3
-39 3 -36 21 12 11 28 20 58 20 68 0 26 17 20 37 -13 9 -16 21 -30 25 -30 19
0 6 -21 -18 -31 -35 -13 -24 -23 16 -14 17 4 37 17 46 30 8 12 28 25 44 29 21
4 31 13 36 31 3 14 13 25 21 25 10 0 12 -6 7 -22 -4 -13 -8 -32 -9 -43 -2 -23
-6 -34 -45 -125 -29 -68 -53 -90 -103 -90 -61 0 -210 190 -159 203 13 4 11 5
-4 6 -21 1 -34 19 -34 47 0 8 6 11 15 8 8 -4 15 -1 15 5 0 11 46 8 58 -3z
m-121 -254 c-2 -78 -6 -145 -9 -147 -3 -3 -19 2 -36 10 l-30 16 4 137 c7 184
9 200 37 204 19 3 23 -3 30 -37 5 -22 6 -104 4 -183z m2489 151 c-2 -16 -4
-40 -5 -55 0 -16 -5 -28 -10 -28 -12 0 -19 77 -8 95 13 24 26 17 23 -12z m446
-21 c-15 -5 -16 -34 0 -50 9 -9 8 -12 -4 -12 -11 0 -17 12 -20 38 -7 52 0 66
20 45 12 -12 13 -18 4 -21z m78 -12 c0 -27 -4 -50 -10 -50 -5 0 -10 23 -10 50
0 28 5 50 10 50 6 0 10 -22 10 -50z m512 12 c-15 -5 -16 -34 0 -50 9 -9 8 -12
-4 -12 -11 0 -17 12 -20 38 -7 52 0 66 20 45 12 -12 13 -18 4 -21z m357 4
c-13 -14 -11 -53 4 -60 6 -3 3 -5 -8 -3 -15 2 -21 11 -23 36 -5 47 4 66 22 49
9 -8 11 -17 5 -22z m1541 -16 c0 -27 -4 -50 -10 -50 -5 0 -10 23 -10 50 0 28
5 50 10 50 6 0 10 -22 10 -50z m440 -1 l0 -50 -37 3 c-31 2 -39 7 -41 26 -4
30 16 55 40 49 11 -3 18 0 18 9 0 8 5 14 10 14 6 0 10 -23 10 -51z m-5470 27
c0 -8 -4 -17 -9 -21 -6 -3 -9 4 -8 15 1 23 17 28 17 6z m2178 -8 c22 -22 13
-38 -19 -38 -18 0 -28 -4 -24 -10 4 -6 16 -8 27 -4 14 4 18 2 14 -5 -9 -15
-39 -14 -54 1 -24 24 -7 68 28 68 9 0 21 -5 28 -12z m44 -28 c5 -38 32 -31 39
10 l6 35 2 -43 c1 -43 1 -43 -31 -40 -31 3 -33 6 -36 43 -4 44 14 39 20 -5z
m148 -10 c0 -25 -5 -51 -12 -58 -16 -16 -43 -15 -58 3 -11 13 -8 14 19 9 19
-4 31 -2 31 4 0 6 -12 12 -27 14 -20 2 -29 9 -31 26 -5 32 14 51 49 50 28 -1
29 -3 29 -48z m27 -12 c-2 -13 -4 -3 -4 22 0 25 2 35 4 23 2 -13 2 -33 0 -45z
m101 18 l3 -37 -38 3 c-34 3 -38 6 -41 32 -4 33 12 47 48 43 21 -3 26 -10 28
-41z m212 4 c0 -32 -3 -36 -30 -38 -36 -3 -57 27 -40 58 8 14 20 20 40 18 27
-2 30 -6 30 -38z m88 22 c3 -11 0 -12 -16 -3 -24 13 -46 -7 -36 -33 7 -19 25
-21 43 -3 11 10 13 9 9 -3 -3 -9 -17 -15 -34 -15 -23 0 -30 5 -32 23 -2 13 2
30 9 38 14 18 51 15 57 -4z m55 -50 c13 -3 17 3 17 27 0 16 5 33 10 36 6 4 10
-10 10 -35 0 -41 -1 -41 -32 -38 -31 3 -33 6 -35 43 l-1 40 6 -35 c5 -22 14
-36 25 -38z m105 48 c4 -13 3 -13 -10 -2 -9 7 -19 9 -22 4 -3 -5 6 -14 19 -20
16 -7 23 -17 19 -27 -6 -16 -54 -21 -54 -6 0 5 9 7 20 4 11 -3 20 0 20 6 0 6
-6 11 -14 11 -22 0 -38 24 -23 39 15 15 39 10 45 -9z m120 8 c22 -22 13 -38
-19 -38 -19 0 -28 -4 -23 -11 3 -6 17 -8 31 -4 16 4 22 2 18 -5 -9 -15 -51
-12 -65 5 -29 35 26 85 58 53z m180 -5 c6 -11 6 -28 1 -41 -12 -32 -62 -28
-67 6 -7 45 47 72 66 35z m100 -29 c4 -52 -16 -79 -51 -70 -37 9 -34 27 3 20
19 -4 30 -2 30 5 0 6 -11 11 -25 11 -26 0 -45 26 -37 50 7 22 24 30 52 27 21
-3 25 -9 28 -43z m82 26 c22 -40 -26 -80 -58 -48 -25 25 -6 68 30 68 9 0 22
-9 28 -20z m124 -22 c9 -38 36 -37 36 1 0 17 5 33 10 36 6 4 10 -10 10 -35 0
-41 -1 -41 -32 -38 -31 3 -33 6 -35 43 -2 42 1 39 11 -7z m116 31 c0 -5 -4 -9
-10 -9 -5 0 -10 -13 -10 -30 0 -16 -4 -30 -10 -30 -5 0 -10 17 -10 38 0 31 4
38 20 39 11 1 20 -2 20 -8z m76 -34 c1 -29 0 -32 -3 -10 -8 53 -43 56 -43 4 0
-16 -4 -29 -10 -29 -5 0 -10 17 -10 39 0 36 1 38 33 37 30 -1 32 -3 33 -41z
m102 1 l3 -37 -38 3 c-34 3 -38 6 -41 32 -4 33 12 47 48 43 21 -3 26 -10 28
-41z m126 22 c16 -26 -4 -53 -40 -53 -23 0 -30 5 -32 23 -7 47 47 69 72 30z
m56 12 c0 -5 -4 -10 -10 -10 -5 0 -10 -13 -10 -30 0 -16 -4 -30 -10 -30 -5 0
-10 18 -10 40 0 33 3 40 20 40 11 0 20 -4 20 -10z m77 -2 c15 -12 18 -68 3
-68 -5 0 -10 13 -10 28 0 34 -7 43 -26 35 -8 -3 -14 -18 -14 -34 0 -16 -4 -29
-10 -29 -10 0 -15 62 -5 71 9 10 50 8 62 -3z m103 -30 c0 -37 -1 -38 -35 -38
-29 0 -36 4 -41 25 -8 33 12 56 47 53 26 -2 29 -6 29 -40z m60 32 c0 -4 -6
-10 -14 -13 -8 -3 -16 -18 -19 -34 -3 -22 -4 -19 -6 12 -1 34 2 41 19 42 11 1
20 -2 20 -7z m75 -30 c0 -32 -2 -35 -30 -35 -26 0 -30 4 -33 29 -4 32 12 48
43 44 16 -2 20 -11 20 -38z m95 28 c0 -4 -4 -8 -10 -8 -5 0 -10 -13 -10 -30 0
-16 -4 -30 -10 -30 -10 0 -14 62 -5 72 8 8 35 5 35 -4z m27 -50 c-2 -13 -4 -3
-4 22 0 25 2 35 4 23 2 -13 2 -33 0 -45z m78 51 c11 -17 -3 -23 -20 -9 -8 7
-15 8 -15 2 0 -5 10 -16 22 -24 12 -8 18 -19 14 -26 -9 -15 -43 -16 -52 -1 -4
8 0 9 15 4 12 -3 21 -2 21 4 0 5 -9 13 -20 16 -20 6 -26 25 -13 38 10 11 41 8
48 -4z m55 -54 c10 0 16 12 18 33 4 42 22 31 22 -14 0 -31 -3 -34 -28 -34 -33
0 -52 16 -52 45 0 37 15 39 20 3 3 -20 11 -33 20 -33z m108 45 c4 -13 3 -13
-10 -2 -12 9 -18 10 -23 2 -4 -7 2 -14 14 -17 31 -8 28 -43 -3 -43 -14 0 -28
5 -32 11 -4 7 0 9 14 5 11 -4 23 -2 27 4 3 5 0 10 -8 10 -19 0 -40 26 -32 40
10 15 47 8 53 -10z m179 -25 c0 -23 -1 -29 -4 -15 -11 55 -43 62 -43 9 0 -16
-4 -29 -10 -29 -5 0 -10 13 -10 28 0 34 -7 43 -26 35 -8 -3 -14 -18 -14 -34 0
-16 -4 -29 -10 -29 -10 0 -14 62 -5 72 3 2 31 4 62 4 l58 -1 2 -40z m101 4 c3
-35 2 -36 -32 -37 -41 -2 -59 20 -45 56 7 19 15 22 41 19 30 -3 33 -7 36 -38z
m110 29 c22 -22 13 -38 -19 -38 -19 0 -28 -4 -23 -11 3 -6 17 -8 31 -4 16 4
22 2 18 -5 -11 -18 -54 -11 -65 10 -22 40 26 80 58 48z m80 -8 c4 -13 3 -13
-10 -2 -12 9 -18 10 -23 2 -4 -7 2 -14 14 -17 31 -8 28 -43 -3 -43 -14 0 -28
5 -32 11 -4 7 0 9 14 5 11 -4 23 -2 27 4 3 5 0 10 -8 10 -19 0 -40 26 -32 40
10 15 47 8 53 -10z m55 -48 c13 -3 17 3 17 27 0 16 5 33 10 36 6 4 10 -10 10
-35 0 -41 -1 -41 -32 -38 -31 3 -33 6 -35 43 l-1 40 6 -35 c5 -22 14 -36 25
-38z m127 28 c0 -32 -3 -36 -29 -38 -39 -3 -58 21 -43 53 9 20 18 25 42 23 27
-2 30 -5 30 -38z m190 0 c0 -31 -3 -36 -26 -38 -31 -2 -54 13 -54 37 0 26 21
41 52 39 25 -2 28 -6 28 -38z m-5880 -30 c12 -23 12 -24 -3 -11 -10 7 -17 20
-17 29 0 18 3 16 20 -18z m5915 0 c3 -5 1 -10 -4 -10 -6 0 -11 5 -11 10 0 6 2
10 4 10 3 0 8 -4 11 -10z m-6160 -57 c-9 -62 -24 -79 -56 -63 -35 18 -69 51
-69 67 0 9 8 12 23 8 12 -3 37 3 57 14 51 27 53 26 45 -26z m626 -20 c16 -10
29 -22 29 -27 0 -5 6 -2 13 8 10 13 20 16 36 11 29 -9 19 -20 -68 -79 -75 -50
-96 -57 -88 -27 3 12 -1 22 -9 25 -18 7 -18 21 1 40 8 8 15 21 15 30 0 8 8 20
18 25 22 13 19 14 53 -6z m-573 -53 c-1 -22 -6 -40 -11 -40 -5 0 -7 10 -3 23
3 12 6 30 6 40 0 9 2 17 5 17 3 0 4 -18 3 -40z m3431 -5 c58 0 51 -67 -8 -73
l-31 -3 1 58 c1 33 4 49 7 38 5 -13 16 -20 31 -20z m71 25 c0 -5 -4 -10 -10
-10 -5 0 -10 5 -10 10 0 6 5 10 10 10 6 0 10 -4 10 -10z m600 0 c0 -5 -5 -10
-11 -10 -5 0 -7 5 -4 10 3 6 8 10 11 10 2 0 4 -4 4 -10z m880 0 c0 -5 -5 -10
-11 -10 -5 0 -7 5 -4 10 3 6 8 10 11 10 2 0 4 -4 4 -10z m210 0 c0 -5 -5 -10
-11 -10 -5 0 -7 5 -4 10 3 6 8 10 11 10 2 0 4 -4 4 -10z m90 -43 c0 -51 -1
-53 -30 -55 -37 -3 -57 27 -39 59 8 15 18 20 35 16 18 -3 24 0 24 14 0 11 2
19 5 19 3 0 5 -24 5 -53z m-2620 28 c14 -17 3 -20 -19 -6 -20 13 -51 -5 -51
-28 0 -29 28 -47 51 -33 26 16 34 15 19 -3 -18 -22 -56 -18 -74 6 -34 49 36
110 74 64z m1080 -35 c0 -27 -4 -50 -10 -50 -5 0 -10 23 -10 50 0 28 5 50 10
50 6 0 10 -22 10 -50z m290 -1 l0 -50 -37 3 c-31 2 -39 7 -41 26 -4 30 16 55
40 49 11 -3 18 0 18 9 0 8 5 14 10 14 6 0 10 -23 10 -51z m822 13 c-15 -5 -16
-34 0 -50 9 -9 8 -12 -4 -12 -11 0 -17 12 -20 38 -7 52 0 66 20 45 12 -12 13
-18 4 -21z m90 0 c-16 -5 -16 -49 1 -55 7 -4 6 -6 -4 -6 -12 -1 -18 10 -21 37
-7 52 0 66 20 45 12 -12 13 -18 4 -21z m567 4 c-13 -14 -11 -53 4 -60 6 -3 3
-5 -8 -3 -15 2 -21 11 -23 36 -5 47 4 66 22 49 9 -8 11 -17 5 -22z m171 -16
c0 -27 -4 -50 -10 -50 -5 0 -10 23 -10 50 0 28 5 50 10 50 6 0 10 -22 10 -50z
m42 12 c-16 -5 -16 -49 1 -55 7 -4 6 -6 -4 -6 -12 -1 -18 10 -21 37 -7 52 0
66 20 45 12 -12 13 -18 4 -21z m-3002 -47 c10 0 16 12 18 33 5 46 22 40 22 -9
0 -39 -1 -40 -32 -37 -31 3 -33 6 -35 43 l-1 40 6 -35 c4 -22 13 -35 22 -35z
m87 47 c-8 -9 -17 -28 -20 -42 -3 -17 -5 -12 -6 15 -1 35 2 41 20 42 19 2 20
0 6 -15z m71 -2 c4 -13 3 -13 -10 -2 -9 7 -19 9 -22 4 -3 -5 6 -14 20 -21 14
-6 24 -17 22 -24 -6 -15 -58 -22 -58 -7 0 7 8 9 20 5 11 -4 20 -2 20 4 0 6 -6
11 -14 11 -19 0 -29 17 -22 36 7 19 37 15 44 -6z m44 -12 c4 -46 31 -44 39 2
l6 35 2 -42 c1 -41 0 -43 -28 -43 -30 0 -41 14 -41 56 0 36 18 29 22 -8z m123
21 c11 -17 -3 -23 -20 -9 -8 7 -15 8 -15 2 0 -5 10 -16 22 -24 12 -8 18 -19
14 -26 -9 -15 -43 -16 -52 -1 -4 8 0 9 15 4 12 -3 21 -2 21 4 0 5 -9 13 -20
16 -20 6 -26 25 -13 38 10 11 41 8 48 -4z m173 -2 c14 -11 16 -67 2 -67 -5 0
-10 13 -10 29 0 53 -33 46 -43 -9 -4 -22 -4 -21 -6 6 0 18 -7 34 -15 37 -19 8
-26 -1 -26 -35 0 -15 -4 -28 -10 -28 -5 0 -10 18 -10 40 l0 40 53 -2 c28 -1
58 -6 65 -11z m92 -1 c6 -8 10 -25 8 -38 -6 -42 -78 -32 -78 11 0 37 46 55 70
27z m57 -4 c-8 -9 -17 -28 -20 -42 -3 -17 -5 -12 -6 15 -1 35 2 41 20 42 19 2
20 0 6 -15z m133 -22 c0 -22 -4 -40 -10 -40 -11 0 -14 63 -3 73 11 12 13 8 13
-33z m72 8 l12 -33 13 34 c8 18 16 31 19 28 9 -9 -19 -77 -31 -77 -9 0 -35 53
-35 73 0 18 12 4 22 -25z m126 15 c6 -11 6 -28 1 -41 -12 -32 -62 -28 -67 6
-7 45 47 72 66 35z m147 6 c11 -17 -3 -23 -20 -9 -8 7 -15 8 -15 2 0 -5 10
-16 22 -24 12 -8 18 -19 14 -26 -9 -15 -43 -16 -52 -1 -4 8 0 9 15 4 12 -3 21
-2 21 4 0 5 -9 13 -20 16 -20 6 -26 25 -13 38 10 11 41 8 48 -4z m85 -4 c17
-21 -2 -65 -28 -65 -22 0 -42 19 -42 40 0 37 47 53 70 25z m170 -25 c0 -22 -4
-40 -10 -40 -11 0 -14 63 -3 73 11 12 13 8 13 -33z m94 18 c15 -24 -3 -52 -37
-56 -17 -2 -27 -10 -30 -25 -2 -12 -5 5 -6 39 l-1 61 31 -1 c19 -1 36 -8 43
-18z m74 4 c3 -11 0 -12 -17 -3 -28 15 -27 -2 1 -21 12 -8 18 -19 14 -26 -9
-15 -43 -16 -52 -1 -4 8 0 9 15 4 12 -3 21 -2 21 4 0 5 -9 13 -20 16 -20 6
-26 25 -13 39 11 11 46 2 51 -12z m52 -47 c10 0 16 12 18 33 4 42 22 31 22
-14 0 -31 -2 -34 -30 -34 -35 0 -58 36 -45 67 7 14 10 11 14 -17 4 -22 12 -35
21 -35z m177 20 c0 -23 -1 -29 -4 -15 -11 55 -43 62 -43 9 0 -16 -4 -29 -10
-29 -5 0 -10 13 -10 29 0 52 -35 49 -43 -4 -3 -25 -4 -23 -6 11 l-1 40 58 0
57 -1 2 -40z m121 33 c22 -22 13 -38 -19 -38 -19 0 -28 -4 -23 -11 3 -6 17 -8
31 -4 16 4 22 2 18 -5 -8 -14 -48 -13 -63 2 -24 24 -7 68 28 68 9 0 21 -5 28
-12z m102 -38 c0 -25 -5 -51 -12 -58 -16 -16 -43 -15 -58 3 -11 13 -8 14 19 9
20 -4 31 -3 31 5 0 6 -11 11 -25 11 -18 0 -26 7 -31 25 -8 33 12 56 47 53 27
-2 29 -5 29 -48z m78 38 c22 -22 13 -38 -19 -38 -19 0 -28 -4 -23 -11 3 -6 17
-8 31 -4 16 4 22 2 18 -5 -11 -18 -54 -11 -65 10 -22 40 26 80 58 48z m182
-28 c0 -22 -4 -40 -10 -40 -11 0 -14 63 -3 73 11 12 13 8 13 -33z m88 -2 c2
-21 -1 -38 -7 -38 -5 0 -11 15 -13 33 -2 17 -7 32 -13 32 -5 0 -11 -15 -13
-32 -5 -46 -22 -41 -22 6 0 36 1 38 33 37 30 -1 32 -4 35 -38z m82 27 c8 -9 9
-15 2 -15 -6 0 -13 4 -17 10 -9 15 -35 0 -35 -21 0 -24 29 -37 40 -18 5 7 12
10 15 7 12 -12 -6 -28 -30 -28 -14 0 -29 9 -35 20 -23 42 30 81 60 45z m40
-25 c0 -22 -4 -40 -10 -40 -11 0 -14 63 -3 73 11 12 13 8 13 -33z m132 8 c4
-46 31 -44 39 2 l6 35 2 -42 c1 -41 0 -43 -28 -43 -30 0 -41 14 -41 56 0 36
18 29 22 -8z m134 -13 c1 -29 0 -32 -3 -10 -8 53 -43 56 -43 4 0 -16 -4 -29
-10 -29 -5 0 -10 18 -10 41 0 39 1 40 33 37 30 -3 32 -6 33 -43z m134 4 c0
-38 27 -39 36 -1 10 47 12 48 13 4 1 -43 1 -43 -31 -40 -30 3 -33 6 -36 42 -2
25 0 36 7 31 6 -3 11 -19 11 -36z m190 29 c0 -4 -4 -8 -10 -8 -5 0 -10 -13
-10 -30 0 -16 -4 -30 -10 -30 -10 0 -14 62 -5 72 8 8 35 5 35 -4z m27 -50 c-2
-13 -4 -3 -4 22 0 25 2 35 4 23 2 -13 2 -33 0 -45z m91 44 c3 -11 0 -12 -16
-3 -24 13 -46 -7 -36 -33 7 -19 25 -21 43 -3 11 10 13 9 9 -3 -3 -9 -17 -15
-34 -15 -23 0 -30 5 -32 23 -2 13 2 30 9 38 14 18 51 15 57 -4z m80 6 c22 -22
13 -38 -19 -38 -18 0 -28 -4 -24 -10 3 -6 18 -7 32 -4 18 5 24 3 19 -5 -9 -15
-49 -14 -64 1 -24 24 -7 68 28 68 9 0 21 -5 28 -12z m80 -8 c4 -13 3 -13 -10
-2 -12 9 -18 10 -23 2 -4 -7 2 -14 14 -17 13 -3 21 -12 19 -22 -4 -20 -36 -27
-52 -11 -8 9 -6 11 12 5 12 -3 22 -2 22 4 0 5 -9 13 -20 16 -20 6 -26 25 -13
39 12 11 46 2 51 -14z m-7821 -52 c-2 -13 -4 -5 -4 17 -1 22 1 32 4 23 2 -10
2 -28 0 -40z m1693 26 c0 -27 -30 -82 -54 -97 -11 -8 -36 -18 -54 -22 -28 -6
-37 -2 -68 29 -19 19 -38 34 -41 33 -10 -3 -28 32 -20 39 7 8 51 -11 79 -34
20 -17 99 -12 123 8 9 7 13 20 10 28 -3 7 -3 18 1 23 9 15 24 10 24 -7z
m-1000 -37 c0 -13 -9 -34 -20 -47 -24 -28 -25 -23 -4 30 19 46 24 50 24 17z
m7160 13 c0 -5 -5 -10 -11 -10 -5 0 -7 5 -4 10 3 6 8 10 11 10 2 0 4 -4 4 -10z
m-7002 -47 c2 -29 8 -43 18 -43 20 0 17 -20 -3 -21 -18 0 -60 -6 -78 -9 -15
-3 -29 -1 -43 8 -9 6 -7 18 8 50 22 45 44 63 75 59 16 -2 21 -11 23 -44z m752
27 c-20 -13 -47 -13 -55 0 -4 6 9 10 32 10 28 0 34 -3 23 -10z m1194 -88 c3
-5 -1 -9 -9 -9 -8 0 -15 4 -15 9 0 4 4 8 9 8 6 0 12 -4 15 -8z m-2651 -69
c-13 -2 -35 -2 -50 0 -16 2 -5 4 22 4 28 0 40 -2 28 -4z m642 -60 c4 -29 3
-53 -2 -54 -4 0 -20 -2 -35 -4 -27 -4 -44 17 -31 38 4 7 0 8 -13 2 -44 -18
-64 -18 -64 1 0 13 19 28 63 49 34 17 65 28 68 25 4 -3 10 -29 14 -57z m107
12 c-2 -11 -10 -25 -19 -32 -23 -18 -71 12 -68 41 1 11 3 21 4 22 0 0 20 -2
44 -6 35 -4 41 -9 39 -25z m2340 18 c11 -10 18 -30 18 -54 0 -52 11 -77 57
-126 l39 -42 -22 -48 c-13 -26 -21 -49 -18 -52 3 -3 34 -4 70 -3 66 3 73 -1
50 -30 -11 -15 -30 -17 -134 -16 -110 1 -124 -1 -145 -19 -31 -29 -67 -36 -73
-15 -17 54 -48 111 -55 100 -4 -7 -4 -18 2 -24 11 -14 7 -48 -6 -53 -6 -2 -26
-9 -45 -16 -56 -21 -100 -26 -101 -12 -3 27 -5 33 -20 62 -9 17 -20 45 -24 63
-3 17 -12 32 -18 33 -7 1 4 5 23 9 41 10 50 6 50 -21 0 -11 8 -22 18 -26 9 -3
32 -17 50 -30 18 -14 36 -23 38 -20 3 3 -4 23 -15 46 -28 54 -27 61 14 61 19
0 35 -4 35 -10 0 -17 18 -11 65 22 25 17 45 38 45 46 0 8 9 26 20 42 11 15 21
41 22 58 1 18 8 34 15 36 7 3 13 17 13 31 0 29 7 31 32 8z m-2775 -65 c-3 -8
-6 -5 -6 6 -1 11 2 17 5 13 3 -3 4 -12 1 -19z m293 -58 c0 -13 -57 -13 -65 0
-4 6 -4 18 -1 26 5 13 9 13 36 -1 16 -8 30 -20 30 -25z m5044 -26 c24 -23 24
-445 0 -468 -14 -14 -94 -16 -734 -16 -640 0 -720 2 -734 16 -14 13 -16 49
-16 234 0 185 2 221 16 234 14 14 94 16 734 16 640 0 720 -2 734 -16z m-5817
-56 c-2 -13 -4 -3 -4 22 0 25 2 35 4 23 2 -13 2 -33 0 -45z m707 36 c3 -8 2
-12 -4 -9 -6 3 -10 10 -10 16 0 14 7 11 14 -7z m386 -29 c-7 -8 -17 -15 -23
-15 -5 0 -2 9 8 20 21 23 35 19 15 -5z m2498 -170 c-28 -26 -87 -140 -89 -171
-1 -11 -4 -6 -9 11 -4 17 -11 39 -15 50 -6 19 -6 19 9 1 14 -17 16 -16 30 18
9 21 24 50 35 65 11 16 17 32 13 36 -4 5 -2 6 3 2 6 -3 17 -2 25 4 26 16 25
10 -2 -16z m-54 -24 c3 -5 -1 -11 -9 -15 -9 -3 -15 0 -15 9 0 16 16 20 24 6z
m-450 -46 c-7 -17 -20 -20 -28 -6 -7 10 3 21 20 21 8 0 11 -6 8 -15z m357 -42
c11 -25 18 -54 16 -62 -3 -11 -5 -9 -6 5 -1 20 -29 55 -32 40 -12 -60 -23 -79
-61 -106 -76 -56 -178 -33 -178 39 0 36 35 90 66 101 39 15 41 12 10 -16 -22
-21 -25 -29 -14 -35 12 -8 4 -13 -14 -10 -12 2 -9 -14 5 -28 10 -11 9 -12 -3
-6 -12 7 -13 6 -3 -7 7 -8 11 -17 8 -20 -3 -3 3 -12 13 -21 17 -15 21 -14 69
18 54 36 63 50 63 97 0 23 4 29 16 24 8 -3 12 -2 9 4 -6 10 1 30 11 30 3 0 14
-21 25 -47z m-436 -1 c3 -9 2 -18 -3 -20 -5 -1 -7 -15 -5 -30 3 -23 2 -24 -6
-7 -7 17 -10 15 -16 -17 -6 -30 -12 -38 -37 -43 -16 -4 -32 -4 -35 -1 -4 3
-12 1 -20 -5 -16 -14 -16 -11 2 42 l15 44 -26 -29 c-18 -21 -24 -36 -20 -52 4
-16 2 -24 -6 -24 -7 0 -24 -3 -38 -6 -14 -3 -20 -2 -14 3 16 12 44 69 44 90 0
23 70 48 82 30 6 -9 8 -9 8 -1 0 7 9 14 20 17 11 3 20 9 19 14 -5 27 25 24 36
-5z m560 -11 c-21 -43 -29 -39 -8 4 9 19 18 33 21 31 2 -2 -4 -18 -13 -35z
m-252 -36 c-7 -21 -13 -19 -13 6 0 11 4 18 10 14 5 -3 7 -12 3 -20z m-220 0
c7 -18 -9 -29 -30 -21 -12 5 -13 9 -3 21 16 19 26 19 33 0z m257 -18 c0 -2
-10 -12 -21 -23 -22 -19 -22 -19 -8 4 12 19 29 30 29 19z"/>
<path d="M1797 2350 c-21 -16 -27 -30 -27 -59 0 -54 23 -81 69 -81 49 0 71 24
71 77 0 67 -63 102 -113 63z"/>
<path d="M1118 2285 c-17 -39 3 -75 42 -75 39 0 59 36 42 75 -9 19 -19 25 -42
25 -23 0 -33 -6 -42 -25z"/>
<path d="M2742 2308 c-21 -21 -13 -28 28 -28 22 0 40 4 40 8 0 14 -23 32 -40
32 -9 0 -21 -5 -28 -12z"/>
<path d="M2971 2304 c-21 -15 -28 -58 -13 -80 15 -24 50 -26 71 -5 24 24 27
50 9 73 -20 24 -44 28 -67 12z"/>
<path d="M6294 2139 c-8 -14 21 -43 35 -35 19 12 13 46 -8 46 -11 0 -23 -5
-27 -11z"/>
<path d="M8310 2145 c-16 -19 -5 -47 17 -43 22 4 29 43 9 51 -8 3 -20 -1 -26
-8z"/>
<path d="M5420 2145 c-16 -19 -5 -47 17 -43 22 4 29 43 9 51 -8 3 -20 -1 -26
-8z"/>
<path d="M5565 2150 c-4 -6 3 -10 14 -10 25 0 27 6 6 13 -8 4 -17 2 -20 -3z"/>
<path d="M5555 2110 c3 -5 12 -10 20 -10 8 0 17 5 20 10 4 6 -5 10 -20 10 -15
0 -24 -4 -20 -10z"/>
<path d="M5871 2146 c-16 -19 -7 -46 14 -46 22 0 30 29 13 46 -13 13 -16 13
-27 0z"/>
<path d="M6392 2128 c4 -27 33 -36 42 -13 8 22 -1 35 -25 35 -15 0 -20 -6 -17
-22z"/>
<path d="M6516 2141 c-10 -16 6 -42 23 -39 9 2 17 13 19 26 3 16 -2 22 -17 22
-11 0 -22 -4 -25 -9z"/>
<path d="M6892 2128 c4 -27 33 -36 42 -13 8 22 -1 35 -25 35 -15 0 -20 -6 -17
-22z"/>
<path d="M7135 2150 c-3 -5 3 -10 15 -10 12 0 18 5 15 10 -3 6 -10 10 -15 10
-5 0 -12 -4 -15 -10z"/>
<path d="M7422 2128 c2 -13 10 -23 18 -23 8 0 16 10 18 23 3 17 -2 22 -18 22
-16 0 -21 -5 -18 -22z"/>
<path d="M7680 2150 c-12 -8 -10 -10 8 -10 13 0 20 4 17 10 -7 12 -6 12 -25 0z"/>
<path d="M7900 2150 c-12 -8 -10 -10 8 -10 13 0 20 4 17 10 -7 12 -6 12 -25 0z"/>
<path d="M8223 2153 c-16 -6 -17 -39 -2 -49 6 -3 17 0 25 8 12 11 12 17 2 30
-7 9 -19 14 -25 11z"/>
<path d="M8442 2128 c2 -13 10 -23 18 -23 8 0 16 10 18 23 3 17 -2 22 -18 22
-16 0 -21 -5 -18 -22z"/>
<path d="M8850 2145 c-16 -19 -5 -47 17 -43 22 4 29 43 9 51 -8 3 -20 -1 -26
-8z"/>
<path d="M6554 1939 c-8 -14 21 -43 35 -35 19 12 13 46 -8 46 -11 0 -23 -5
-27 -11z"/>
<path d="M5360 1950 c-12 -8 -10 -10 8 -10 13 0 20 4 17 10 -7 12 -6 12 -25 0z"/>
<path d="M5784 1939 c-8 -14 21 -43 35 -35 19 12 13 46 -8 46 -11 0 -23 -5
-27 -11z"/>
<path d="M6192 1928 c4 -27 33 -36 42 -13 8 22 -1 35 -25 35 -15 0 -20 -6 -17
-22z"/>
<path d="M6403 1953 c-16 -6 -17 -39 -2 -49 6 -3 18 1 27 10 14 14 14 18 2 30
-8 7 -21 12 -27 9z"/>
<path d="M6842 1951 c-19 -11 -11 -45 11 -49 9 -2 20 4 23 13 9 21 -16 47 -34
36z"/>
<path d="M6935 1950 c-4 -6 3 -10 14 -10 25 0 27 6 6 13 -8 4 -17 2 -20 -3z"/>
<path d="M6930 1910 c0 -5 6 -10 14 -10 8 0 18 5 21 10 3 6 -3 10 -14 10 -12
0 -21 -4 -21 -10z"/>
<path d="M7105 1950 c-3 -5 3 -10 15 -10 12 0 18 5 15 10 -3 6 -10 10 -15 10
-5 0 -12 -4 -15 -10z"/>
<path d="M7108 1908 c9 -9 15 -9 24 0 9 9 7 12 -12 12 -19 0 -21 -3 -12 -12z"/>
<path d="M7281 1946 c-15 -18 -3 -48 18 -44 21 4 27 44 7 51 -8 3 -19 0 -25
-7z"/>
<path d="M7810 1950 c-12 -8 -10 -10 8 -10 13 0 20 4 17 10 -7 12 -6 12 -25 0z"/>
<path d="M7930 1950 c-12 -8 -10 -10 8 -10 13 0 20 4 17 10 -7 12 -6 12 -25 0z"/>
<path d="M8172 1928 c2 -13 10 -23 18 -23 8 0 16 10 18 23 3 17 -2 22 -18 22
-16 0 -21 -5 -18 -22z"/>
<path d="M8360 1950 c-12 -8 -10 -10 8 -10 13 0 20 4 17 10 -7 12 -6 12 -25 0z"/>
<path d="M5360 1760 c0 -13 5 -20 13 -17 6 2 12 10 12 17 0 7 -6 15 -12 18 -8
2 -13 -5 -13 -18z"/>
<path d="M7122 1751 c-19 -11 -11 -45 11 -49 9 -2 20 4 23 13 9 21 -16 47 -34
36z"/>
<path d="M5530 1745 c-16 -19 -5 -47 17 -43 22 4 29 43 9 51 -8 3 -20 -1 -26
-8z"/>
<path d="M5680 1750 c-12 -8 -10 -10 8 -10 13 0 20 4 17 10 -7 12 -6 12 -25 0z"/>
<path d="M5862 1728 c4 -27 33 -36 42 -13 8 22 -1 35 -25 35 -15 0 -20 -6 -17
-22z"/>
<path d="M6030 1750 c-12 -8 -10 -10 8 -10 13 0 20 4 17 10 -7 12 -6 12 -25 0z"/>
<path d="M6173 1753 c-16 -6 -17 -39 -2 -49 6 -3 17 0 25 8 12 11 12 17 2 30
-7 9 -19 14 -25 11z"/>
<path d="M6342 1728 c2 -15 10 -23 23 -23 30 0 27 39 -3 43 -20 3 -23 0 -20
-20z"/>
<path d="M6590 1750 c-12 -8 -10 -10 8 -10 13 0 20 4 17 10 -7 12 -6 12 -25 0z"/>
<path d="M6870 1750 c-12 -8 -10 -10 8 -10 13 0 20 4 17 10 -7 12 -6 12 -25 0z"/>
<path d="M7754 1739 c-8 -14 21 -43 35 -35 19 12 13 46 -8 46 -11 0 -23 -5
-27 -11z"/>
<path d="M8093 1753 c-16 -6 -17 -39 -2 -49 6 -3 18 1 27 10 14 14 14 18 2 30
-8 7 -21 12 -27 9z"/>
<path d="M8224 1739 c-8 -14 21 -43 35 -35 19 12 13 46 -8 46 -11 0 -23 -5
-27 -11z"/>
<path d="M8325 1750 c-4 -6 3 -10 14 -10 25 0 27 6 6 13 -8 4 -17 2 -20 -3z"/>
<path d="M8320 1710 c0 -5 6 -10 14 -10 8 0 18 5 21 10 3 6 -3 10 -14 10 -12
0 -21 -4 -21 -10z"/>
<path d="M2090 1267 c-46 -43 -56 -58 -56 -86 l0 -33 31 34 c16 19 40 47 53
64 18 23 20 24 11 5 -8 -17 -8 -21 0 -17 6 4 11 2 11 -4 0 -7 -7 -9 -17 -6
-10 4 -14 4 -10 0 4 -4 -15 -30 -41 -58 -43 -45 -50 -60 -65 -130 -10 -43 -16
-80 -15 -82 11 -10 76 92 101 160 17 44 41 95 54 112 12 17 23 35 23 39 0 5
-6 0 -14 -10 -13 -18 -13 -17 -13 8 0 15 3 30 8 33 11 6 12 24 2 24 -5 0 -33
-24 -63 -53z"/>
<path d="M3061 536 c10 -9 69 -36 69 -32 0 6 -55 36 -66 36 -4 0 -5 -2 -3 -4z"/>
<path d="M2955 1740 c-4 -6 10 -10 35 -10 25 0 39 4 35 10 -3 6 -19 10 -35 10
-16 0 -32 -4 -35 -10z"/>
<path d="M4665 1570 c-18 -35 -19 -67 -3 -72 7 -3 9 -12 4 -23 -6 -16 -9 -17
-16 -5 -7 11 -10 1 -9 -30 0 -25 3 -38 6 -30 3 8 11 18 17 22 6 4 11 32 10 63
0 37 4 55 12 55 14 0 19 -13 29 -73 7 -42 -14 -87 -40 -87 -20 0 -19 -19 1
-27 9 -3 13 -12 9 -22 -3 -9 4 -5 15 9 37 47 47 178 16 225 -21 32 -32 32 -51
-5z"/>
<path d="M3858 1259 c-21 -12 -22 -28 -3 -53 13 -17 18 -17 64 -5 47 12 69 29
39 29 -7 0 -5 5 6 11 15 9 16 13 5 20 -19 12 -90 11 -111 -2z m72 -29 c12 -8
9 -10 -12 -10 -16 0 -28 5 -28 10 0 13 20 13 40 0z"/>
<path d="M4201 1234 c0 -11 3 -14 6 -6 3 7 2 16 -1 19 -3 4 -6 -2 -5 -13z"/>
<path d="M4197 1203 c-4 -3 -7 -11 -7 -17 0 -6 5 -5 12 2 6 6 9 14 7 17 -3 3
-9 2 -12 -2z"/>
<path d="M3915 1180 c-3 -5 -2 -10 4 -10 5 0 13 5 16 10 3 6 2 10 -4 10 -5 0
-13 -4 -16 -10z"/>
<path d="M4723 1055 c0 -33 2 -45 4 -27 2 18 2 45 0 60 -2 15 -4 0 -4 -33z"/>
<path d="M3970 1060 c0 -5 -7 -10 -16 -10 -10 0 -14 -6 -11 -14 3 -7 0 -19 -6
-25 -8 -8 -8 -11 0 -11 6 0 16 6 22 14 9 11 9 15 -1 20 -7 3 -3 3 10 0 17 -4
22 -1 22 15 0 12 -4 21 -10 21 -5 0 -10 -4 -10 -10z"/>
<path d="M4070 1030 c0 -5 5 -10 11 -10 5 0 7 5 4 10 -3 6 -8 10 -11 10 -2 0
-4 -4 -4 -10z"/>
<path d="M3885 990 c-8 -13 5 -13 25 0 13 8 13 10 -2 10 -9 0 -20 -4 -23 -10z"/>
<path d="M3900 960 c-12 -8 -11 -10 8 -10 12 0 22 5 22 10 0 13 -11 13 -30 0z"/>
<path d="M1355 1570 c3 -5 8 -10 11 -10 2 0 4 5 4 10 0 6 -5 10 -11 10 -5 0
-7 -4 -4 -10z"/>
<path d="M1266 1425 c4 -8 7 -15 9 -15 2 0 5 7 9 15 3 9 0 15 -9 15 -9 0 -12
-6 -9 -15z"/>
<path d="M3077 1550 c-42 -8 -51 -14 -45 -31 3 -8 8 -8 19 3 16 16 85 22 94 8
3 -5 -4 -12 -16 -15 -16 -5 -18 -9 -8 -15 9 -6 2 -11 -22 -18 -28 -8 -31 -11
-16 -17 23 -10 67 10 67 29 0 8 9 22 21 30 44 30 -3 44 -94 26z"/>
<path d="M2840 1396 c0 -51 4 -86 10 -86 6 0 10 32 10 75 0 41 0 78 1 82 0 4
-4 9 -10 11 -7 2 -11 -25 -11 -82z"/>
<path d="M8674 1539 c-8 -14 21 -43 35 -35 19 12 13 46 -8 46 -11 0 -23 -5
-27 -11z"/>
<path d="M5405 1550 c-3 -5 3 -10 15 -10 12 0 18 5 15 10 -3 6 -10 10 -15 10
-5 0 -12 -4 -15 -10z"/>
<path d="M5574 1539 c-8 -14 21 -43 35 -35 19 12 13 46 -8 46 -11 0 -23 -5
-27 -11z"/>
<path d="M5710 1545 c-16 -19 -5 -47 17 -43 22 4 29 43 9 51 -8 3 -20 -1 -26
-8z"/>
<path d="M5922 1528 c2 -15 10 -23 23 -23 30 0 27 39 -3 43 -20 3 -23 0 -20
-20z"/>
<path d="M6310 1550 c-12 -8 -10 -10 8 -10 13 0 20 4 17 10 -7 12 -6 12 -25 0z"/>
<path d="M6485 1550 c-4 -6 3 -10 14 -10 25 0 27 6 6 13 -8 4 -17 2 -20 -3z"/>
<path d="M6480 1510 c0 -5 6 -10 14 -10 8 0 18 5 21 10 3 6 -3 10 -14 10 -12
0 -21 -4 -21 -10z"/>
<path d="M6570 1545 c-16 -19 -5 -47 17 -43 22 4 29 43 9 51 -8 3 -20 -1 -26
-8z"/>
<path d="M6665 1550 c-4 -6 3 -10 14 -10 25 0 27 6 6 13 -8 4 -17 2 -20 -3z"/>
<path d="M6668 1508 c9 -9 15 -9 24 0 9 9 7 12 -12 12 -19 0 -21 -3 -12 -12z"/>
<path d="M7070 1545 c-16 -19 -5 -47 17 -43 22 4 29 43 9 51 -8 3 -20 -1 -26
-8z"/>
<path d="M7194 1539 c-8 -14 21 -43 35 -35 19 12 13 46 -8 46 -11 0 -23 -5
-27 -11z"/>
<path d="M7432 1528 c2 -13 10 -23 18 -23 8 0 16 10 18 23 3 17 -2 22 -18 22
-16 0 -21 -5 -18 -22z"/>
<path d="M7585 1550 c-4 -6 3 -10 14 -10 25 0 27 6 6 13 -8 4 -17 2 -20 -3z"/>
<path d="M7575 1510 c3 -5 12 -10 20 -10 8 0 17 5 20 10 4 6 -5 10 -20 10 -15
0 -24 -4 -20 -10z"/>
<path d="M8211 1546 c-16 -19 -7 -46 14 -46 22 0 30 29 13 46 -13 13 -16 13
-27 0z"/>
<path d="M8340 1550 c-12 -8 -10 -10 8 -10 13 0 20 4 17 10 -7 12 -6 12 -25 0z"/>
<path d="M8582 1528 c4 -27 33 -36 42 -13 8 22 -1 35 -25 35 -15 0 -20 -6 -17
-22z"/>
<path d="M8772 1528 c4 -27 33 -36 42 -13 8 22 -1 35 -25 35 -15 0 -20 -6 -17
-22z"/>
<path d="M6164 1339 c-8 -14 21 -43 35 -35 19 12 13 46 -8 46 -11 0 -23 -5
-27 -11z"/>
<path d="M7982 1328 c2 -15 10 -23 23 -23 30 0 27 39 -3 43 -20 3 -23 0 -20
-20z"/>
<path d="M6724 1339 c-8 -14 21 -43 35 -35 19 12 13 46 -8 46 -11 0 -23 -5
-27 -11z"/>
<path d="M6032 1351 c-18 -11 -11 -45 9 -49 9 -2 19 5 23 14 8 22 -14 46 -32
35z"/>
<path d="M6415 1350 c-4 -6 3 -10 14 -10 25 0 27 6 6 13 -8 4 -17 2 -20 -3z"/>
<path d="M6410 1310 c0 -5 6 -10 14 -10 8 0 18 5 21 10 3 6 -3 10 -14 10 -12
0 -21 -4 -21 -10z"/>
<path d="M6645 1350 c-3 -5 3 -10 15 -10 12 0 18 5 15 10 -3 6 -10 10 -15 10
-5 0 -12 -4 -15 -10z"/>
<path d="M6648 1308 c9 -9 15 -9 24 0 9 9 7 12 -12 12 -19 0 -21 -3 -12 -12z"/>
<path d="M6894 1339 c-8 -14 21 -43 35 -35 19 12 13 46 -8 46 -11 0 -23 -5
-27 -11z"/>
<path d="M7340 1350 c-12 -8 -10 -10 8 -10 13 0 20 4 17 10 -7 12 -6 12 -25 0z"/>
<path d="M7422 1328 c2 -13 10 -23 18 -23 8 0 16 10 18 23 3 17 -2 22 -18 22
-16 0 -21 -5 -18 -22z"/>
<path d="M7520 1350 c-12 -8 -10 -10 8 -10 13 0 20 4 17 10 -7 12 -6 12 -25 0z"/>
<path d="M8700 1350 c-12 -8 -10 -10 8 -10 13 0 20 4 17 10 -7 12 -6 12 -25 0z"/>
<path d="M3890 745 c0 -8 7 -15 16 -15 14 0 14 3 4 15 -7 8 -14 15 -16 15 -2
0 -4 -7 -4 -15z"/>
<path d="M3898 529 c-9 -16 -14 -29 -9 -29 8 0 34 50 29 56 -2 1 -11 -11 -20
-27z"/>
</g>
</svg>
